# xmcd
#
# Track frame offsets: 
#        150
#        11629
#        21536
#        34538
#        46642
#        65969
#        78524
#        98071
#        112822
#        123852
#        135749
#        148088
#        158637
#        171254
#
# Disc length: 2451 seconds
#
# Revision: 0
# Processed by: cddbd v1.5.2PL0 Copyright (c) Steve Scherf et al.
# Submitted via: ExactAudioCopy v0.99pb4
#
DISCID=b509910e
DTITLE=Various Artist - Classic Country Favourites
DYEAR=2008
DGENRE=Country
TTITLE0=Willie Nelson - Mammas Don't Let Your Babies Grow Up to Be Cow
TTITLE0=boys
TTITLE1=Merle Haggard - Mama Tried
TTITLE2=Lynn Anderson - Rose Garden
TTITLE3=Dolly Parton - Jolene
TTITLE4=Bobby Bare - Tequila Sheila
TTITLE5=Jerry Reed - East Bound and Down
TTITLE6=Kris Kristofferson - Me and Bobby McGee
TTITLE7=Waylon Jennings - Luckenbach, Texas (Back to the Basics of Lov
TTITLE7=e)
TTITLE8=George Jones - Why Baby Why
TTITLE9=Johnny Paycheck - Take This Job and Shove It
TTITLE10=David Allan Coe - Cheap Thrills
TTITLE11=Johnny Horton - I'm Ready If You're Willing
TTITLE12=Porter Wagoner - A Satisfied Mind
TTITLE13=Jim Reeves - Four Walls
EXTD=
EXTT0=
EXTT1=
EXTT2=
EXTT3=
EXTT4=
EXTT5=
EXTT6=
EXTT7=
EXTT8=
EXTT9=
EXTT10=
EXTT11=
EXTT12=
EXTT13=
PLAYORDER=
